<mxfile host="app.diagrams.net" modified="2023-10-03T23:40:42.491Z" agent="Mozilla/5.0 (X11; Linux x86_64; rv:109.0) Gecko/20100101 Firefox/118.0" version="22.0.2" etag="4fUBvo68wmycDeKOuzLx" type="github">
  <diagram name="Page-1" id="4mHVYZyLnhP37JVIOnOW">
    <mxGraphModel>
      <root>
        <mxCell id="0" />
        <mxCell id="1" parent="0" />
      </root>
    </mxGraphModel>
  </diagram>
</mxfile>
